<mxfile host="app.diagrams.net" agent="Mozilla/5.0 (Macintosh; Intel Mac OS X 10_15_7) AppleWebKit/537.36 (KHTML, like Gecko) Chrome/126.0.0.0 Safari/537.36" version="27.1.6">
  <diagram name="Página-1" id="UqNtgHK7CwzhTbBHMxgM">
    <mxGraphModel dx="1044" dy="1648" grid="1" gridSize="10" guides="1" tooltips="1" connect="1" arrows="1" fold="1" page="1" pageScale="1" pageWidth="827" pageHeight="1169" math="0" shadow="0">
      <root>
        <mxCell id="0" />
        <mxCell id="1" parent="0" />
        <mxCell id="oQ5Rby-hga_X__ONy6VM-1" value="" style="shape=datastore;whiteSpace=wrap;html=1;" vertex="1" parent="1">
          <mxGeometry x="370" y="50" width="60" height="60" as="geometry" />
        </mxCell>
        <mxCell id="oQ5Rby-hga_X__ONy6VM-7" style="edgeStyle=orthogonalEdgeStyle;rounded=0;orthogonalLoop=1;jettySize=auto;html=1;exitX=0.5;exitY=1;exitDx=0;exitDy=0;entryX=0.5;entryY=0;entryDx=0;entryDy=0;" edge="1" parent="1" source="oQ5Rby-hga_X__ONy6VM-2" target="oQ5Rby-hga_X__ONy6VM-5">
          <mxGeometry relative="1" as="geometry" />
        </mxCell>
        <mxCell id="oQ5Rby-hga_X__ONy6VM-26" style="edgeStyle=orthogonalEdgeStyle;rounded=0;orthogonalLoop=1;jettySize=auto;html=1;" edge="1" parent="1" source="oQ5Rby-hga_X__ONy6VM-2" target="oQ5Rby-hga_X__ONy6VM-25">
          <mxGeometry relative="1" as="geometry" />
        </mxCell>
        <mxCell id="oQ5Rby-hga_X__ONy6VM-2" value="reviews" style="text;strokeColor=none;align=center;fillColor=none;html=1;verticalAlign=middle;whiteSpace=wrap;rounded=0;" vertex="1" parent="1">
          <mxGeometry x="370" y="80" width="60" height="30" as="geometry" />
        </mxCell>
        <mxCell id="oQ5Rby-hga_X__ONy6VM-3" value="ProductId&lt;div&gt;Score&lt;/div&gt;&lt;div&gt;Summary&amp;nbsp;&lt;/div&gt;&lt;div&gt;Text&lt;/div&gt;&lt;div&gt;*Time&lt;/div&gt;" style="text;strokeColor=none;align=left;fillColor=none;html=1;verticalAlign=middle;whiteSpace=wrap;rounded=0;" vertex="1" parent="1">
          <mxGeometry x="440" y="40" width="60" height="30" as="geometry" />
        </mxCell>
        <mxCell id="oQ5Rby-hga_X__ONy6VM-9" style="edgeStyle=orthogonalEdgeStyle;rounded=0;orthogonalLoop=1;jettySize=auto;html=1;exitX=0.5;exitY=1;exitDx=0;exitDy=0;entryX=0.5;entryY=0;entryDx=0;entryDy=0;" edge="1" parent="1" source="oQ5Rby-hga_X__ONy6VM-5" target="oQ5Rby-hga_X__ONy6VM-8">
          <mxGeometry relative="1" as="geometry" />
        </mxCell>
        <mxCell id="oQ5Rby-hga_X__ONy6VM-17" style="edgeStyle=orthogonalEdgeStyle;rounded=0;orthogonalLoop=1;jettySize=auto;html=1;entryX=0.5;entryY=0;entryDx=0;entryDy=0;" edge="1" parent="1" source="oQ5Rby-hga_X__ONy6VM-5" target="oQ5Rby-hga_X__ONy6VM-16">
          <mxGeometry relative="1" as="geometry" />
        </mxCell>
        <mxCell id="oQ5Rby-hga_X__ONy6VM-5" value="Limpeza de texto c/ spell" style="whiteSpace=wrap;html=1;" vertex="1" parent="1">
          <mxGeometry x="110" y="160" width="120" height="60" as="geometry" />
        </mxCell>
        <mxCell id="oQ5Rby-hga_X__ONy6VM-12" style="edgeStyle=orthogonalEdgeStyle;rounded=0;orthogonalLoop=1;jettySize=auto;html=1;exitX=0.5;exitY=1;exitDx=0;exitDy=0;" edge="1" parent="1" source="oQ5Rby-hga_X__ONy6VM-8" target="oQ5Rby-hga_X__ONy6VM-11">
          <mxGeometry relative="1" as="geometry" />
        </mxCell>
        <mxCell id="oQ5Rby-hga_X__ONy6VM-15" style="edgeStyle=orthogonalEdgeStyle;rounded=0;orthogonalLoop=1;jettySize=auto;html=1;" edge="1" parent="1" source="oQ5Rby-hga_X__ONy6VM-8" target="oQ5Rby-hga_X__ONy6VM-14">
          <mxGeometry relative="1" as="geometry">
            <Array as="points">
              <mxPoint x="170" y="470" />
              <mxPoint x="260" y="470" />
            </Array>
          </mxGeometry>
        </mxCell>
        <mxCell id="oQ5Rby-hga_X__ONy6VM-8" value="Tokenizacao" style="whiteSpace=wrap;html=1;" vertex="1" parent="1">
          <mxGeometry x="110" y="340" width="120" height="50" as="geometry" />
        </mxCell>
        <mxCell id="oQ5Rby-hga_X__ONy6VM-10" value="df_formatado" style="text;strokeColor=none;align=center;fillColor=none;html=1;verticalAlign=middle;whiteSpace=wrap;rounded=0;rotation=-90;" vertex="1" parent="1">
          <mxGeometry x="130" y="260" width="60" height="30" as="geometry" />
        </mxCell>
        <mxCell id="oQ5Rby-hga_X__ONy6VM-11" value="Nuvem de palavras" style="ellipse;shape=cloud;whiteSpace=wrap;html=1;" vertex="1" parent="1">
          <mxGeometry x="10" y="550" width="170" height="80" as="geometry" />
        </mxCell>
        <mxCell id="oQ5Rby-hga_X__ONy6VM-13" value="df_tokens" style="text;strokeColor=none;align=center;fillColor=none;html=1;verticalAlign=middle;whiteSpace=wrap;rounded=0;" vertex="1" parent="1">
          <mxGeometry x="140" y="470" width="60" height="30" as="geometry" />
        </mxCell>
        <mxCell id="oQ5Rby-hga_X__ONy6VM-14" value="Gráfico top palavras" style="strokeWidth=2;html=1;shape=mxgraph.flowchart.terminator;whiteSpace=wrap;" vertex="1" parent="1">
          <mxGeometry x="210" y="560" width="100" height="60" as="geometry" />
        </mxCell>
        <mxCell id="oQ5Rby-hga_X__ONy6VM-16" value="Tseries" style="whiteSpace=wrap;html=1;" vertex="1" parent="1">
          <mxGeometry x="340" y="250" width="120" height="50" as="geometry" />
        </mxCell>
        <mxCell id="oQ5Rby-hga_X__ONy6VM-18" value="Time series line chart" style="strokeWidth=2;html=1;shape=mxgraph.flowchart.terminator;whiteSpace=wrap;" vertex="1" parent="1">
          <mxGeometry x="350" y="390" width="100" height="60" as="geometry" />
        </mxCell>
        <mxCell id="oQ5Rby-hga_X__ONy6VM-19" style="edgeStyle=orthogonalEdgeStyle;rounded=0;orthogonalLoop=1;jettySize=auto;html=1;exitX=0.5;exitY=1;exitDx=0;exitDy=0;entryX=0;entryY=0.5;entryDx=0;entryDy=0;entryPerimeter=0;" edge="1" parent="1" source="oQ5Rby-hga_X__ONy6VM-16" target="oQ5Rby-hga_X__ONy6VM-18">
          <mxGeometry relative="1" as="geometry" />
        </mxCell>
        <mxCell id="oQ5Rby-hga_X__ONy6VM-20" style="edgeStyle=orthogonalEdgeStyle;rounded=0;orthogonalLoop=1;jettySize=auto;html=1;entryX=0.5;entryY=0;entryDx=0;entryDy=0;entryPerimeter=0;" edge="1" parent="1" source="oQ5Rby-hga_X__ONy6VM-16" target="oQ5Rby-hga_X__ONy6VM-18">
          <mxGeometry relative="1" as="geometry" />
        </mxCell>
        <mxCell id="oQ5Rby-hga_X__ONy6VM-21" style="edgeStyle=orthogonalEdgeStyle;rounded=0;orthogonalLoop=1;jettySize=auto;html=1;entryX=1.01;entryY=0.633;entryDx=0;entryDy=0;entryPerimeter=0;" edge="1" parent="1" source="oQ5Rby-hga_X__ONy6VM-16" target="oQ5Rby-hga_X__ONy6VM-18">
          <mxGeometry relative="1" as="geometry" />
        </mxCell>
        <mxCell id="oQ5Rby-hga_X__ONy6VM-23" value="df_positivo&lt;span style=&quot;color: rgba(0, 0, 0, 0); font-family: monospace; font-size: 0px; text-align: start; text-wrap: nowrap;&quot;&gt;%3CmxGraphModel%3E%3Croot%3E%3CmxCell%20id%3D%220%22%2F%3E%3CmxCell%20id%3D%221%22%20parent%3D%220%22%2F%3E%3CmxCell%20id%3D%222%22%20value%3D%22Gr%C3%A1fico%20top%20palavras%22%20style%3D%22strokeWidth%3D2%3Bhtml%3D1%3Bshape%3Dmxgraph.flowchart.terminator%3BwhiteSpace%3Dwrap%3B%22%20vertex%3D%221%22%20parent%3D%221%22%3E%3CmxGeometry%20x%3D%22210%22%20y%3D%22560%22%20width%3D%22100%22%20height%3D%2260%22%20as%3D%22geometry%22%2F%3E%3C%2FmxCell%3E%3C%2Froot%3E%3C%2FmxGraphModel%3E&lt;/span&gt;" style="text;strokeColor=none;align=center;fillColor=none;html=1;verticalAlign=middle;whiteSpace=wrap;rounded=0;" vertex="1" parent="1">
          <mxGeometry x="330" y="320" width="60" height="30" as="geometry" />
        </mxCell>
        <mxCell id="oQ5Rby-hga_X__ONy6VM-24" value="df_negativo" style="text;strokeColor=none;align=center;fillColor=none;html=1;verticalAlign=middle;whiteSpace=wrap;rounded=0;" vertex="1" parent="1">
          <mxGeometry x="414" y="320" width="60" height="30" as="geometry" />
        </mxCell>
        <mxCell id="oQ5Rby-hga_X__ONy6VM-28" style="edgeStyle=orthogonalEdgeStyle;rounded=0;orthogonalLoop=1;jettySize=auto;html=1;entryX=0.5;entryY=0;entryDx=0;entryDy=0;" edge="1" parent="1" source="oQ5Rby-hga_X__ONy6VM-25" target="oQ5Rby-hga_X__ONy6VM-27">
          <mxGeometry relative="1" as="geometry" />
        </mxCell>
        <mxCell id="oQ5Rby-hga_X__ONy6VM-25" value="Formatacao e balanceamento" style="whiteSpace=wrap;html=1;" vertex="1" parent="1">
          <mxGeometry x="600" y="160" width="120" height="60" as="geometry" />
        </mxCell>
        <mxCell id="oQ5Rby-hga_X__ONy6VM-31" style="edgeStyle=orthogonalEdgeStyle;rounded=0;orthogonalLoop=1;jettySize=auto;html=1;" edge="1" parent="1" source="oQ5Rby-hga_X__ONy6VM-27" target="oQ5Rby-hga_X__ONy6VM-30">
          <mxGeometry relative="1" as="geometry" />
        </mxCell>
        <mxCell id="oQ5Rby-hga_X__ONy6VM-27" value="Separação do conjunto de teste e treinamento" style="whiteSpace=wrap;html=1;" vertex="1" parent="1">
          <mxGeometry x="600" y="305" width="120" height="60" as="geometry" />
        </mxCell>
        <mxCell id="oQ5Rby-hga_X__ONy6VM-29" value="df_balanceado" style="text;strokeColor=none;align=center;fillColor=none;html=1;verticalAlign=middle;whiteSpace=wrap;rounded=0;" vertex="1" parent="1">
          <mxGeometry x="680" y="250" width="60" height="30" as="geometry" />
        </mxCell>
        <mxCell id="oQ5Rby-hga_X__ONy6VM-33" style="edgeStyle=orthogonalEdgeStyle;rounded=0;orthogonalLoop=1;jettySize=auto;html=1;" edge="1" parent="1" source="oQ5Rby-hga_X__ONy6VM-30" target="oQ5Rby-hga_X__ONy6VM-32">
          <mxGeometry relative="1" as="geometry" />
        </mxCell>
        <mxCell id="oQ5Rby-hga_X__ONy6VM-30" value="GridSearchCV" style="whiteSpace=wrap;html=1;" vertex="1" parent="1">
          <mxGeometry x="600" y="430" width="120" height="60" as="geometry" />
        </mxCell>
        <mxCell id="oQ5Rby-hga_X__ONy6VM-36" style="edgeStyle=orthogonalEdgeStyle;rounded=0;orthogonalLoop=1;jettySize=auto;html=1;entryX=0.5;entryY=0;entryDx=0;entryDy=0;" edge="1" parent="1" source="oQ5Rby-hga_X__ONy6VM-32" target="oQ5Rby-hga_X__ONy6VM-35">
          <mxGeometry relative="1" as="geometry" />
        </mxCell>
        <mxCell id="oQ5Rby-hga_X__ONy6VM-38" style="edgeStyle=orthogonalEdgeStyle;rounded=0;orthogonalLoop=1;jettySize=auto;html=1;entryX=0.5;entryY=0;entryDx=0;entryDy=0;" edge="1" parent="1" source="oQ5Rby-hga_X__ONy6VM-32" target="oQ5Rby-hga_X__ONy6VM-37">
          <mxGeometry relative="1" as="geometry" />
        </mxCell>
        <mxCell id="oQ5Rby-hga_X__ONy6VM-32" value="" style="sketch=0;outlineConnect=0;fontColor=#232F3E;gradientColor=none;fillColor=#01A88D;strokeColor=none;dashed=0;verticalLabelPosition=bottom;verticalAlign=top;align=center;html=1;fontSize=12;fontStyle=0;aspect=fixed;pointerEvents=1;shape=mxgraph.aws4.sagemaker_model;" vertex="1" parent="1">
          <mxGeometry x="621" y="552" width="78" height="78" as="geometry" />
        </mxCell>
        <mxCell id="oQ5Rby-hga_X__ONy6VM-34" value="best_model" style="text;strokeColor=none;align=center;fillColor=none;html=1;verticalAlign=middle;whiteSpace=wrap;rounded=0;" vertex="1" parent="1">
          <mxGeometry x="710" y="575" width="60" height="30" as="geometry" />
        </mxCell>
        <mxCell id="oQ5Rby-hga_X__ONy6VM-35" value="Salvar Modelo" style="whiteSpace=wrap;html=1;" vertex="1" parent="1">
          <mxGeometry x="690" y="730" width="120" height="60" as="geometry" />
        </mxCell>
        <mxCell id="oQ5Rby-hga_X__ONy6VM-37" value="Realizar predição dos dados de teste" style="whiteSpace=wrap;html=1;" vertex="1" parent="1">
          <mxGeometry x="510" y="730" width="120" height="60" as="geometry" />
        </mxCell>
        <mxCell id="oQ5Rby-hga_X__ONy6VM-40" value="Matriz Confusao" style="strokeWidth=2;html=1;shape=mxgraph.flowchart.terminator;whiteSpace=wrap;" vertex="1" parent="1">
          <mxGeometry x="590" y="860" width="100" height="60" as="geometry" />
        </mxCell>
        <mxCell id="oQ5Rby-hga_X__ONy6VM-41" style="edgeStyle=orthogonalEdgeStyle;rounded=0;orthogonalLoop=1;jettySize=auto;html=1;entryX=0.5;entryY=0;entryDx=0;entryDy=0;entryPerimeter=0;" edge="1" parent="1" source="oQ5Rby-hga_X__ONy6VM-37" target="oQ5Rby-hga_X__ONy6VM-40">
          <mxGeometry relative="1" as="geometry" />
        </mxCell>
        <mxCell id="oQ5Rby-hga_X__ONy6VM-42" value="Acuracia" style="strokeWidth=2;html=1;shape=mxgraph.flowchart.terminator;whiteSpace=wrap;" vertex="1" parent="1">
          <mxGeometry x="450" y="860" width="100" height="60" as="geometry" />
        </mxCell>
        <mxCell id="oQ5Rby-hga_X__ONy6VM-43" style="edgeStyle=orthogonalEdgeStyle;rounded=0;orthogonalLoop=1;jettySize=auto;html=1;entryX=0.5;entryY=0;entryDx=0;entryDy=0;entryPerimeter=0;" edge="1" parent="1" source="oQ5Rby-hga_X__ONy6VM-37" target="oQ5Rby-hga_X__ONy6VM-42">
          <mxGeometry relative="1" as="geometry" />
        </mxCell>
      </root>
    </mxGraphModel>
  </diagram>
</mxfile>
